<svg xmlns="http://www.w3.org/2000/svg" width="512" height="512" viewBox="0 0 512 512">
  <defs>
    <linearGradient id="g" x1="0" y1="0" x2="1" y2="1">
      <stop offset="0%" stop-color="#2563eb" />
      <stop offset="100%" stop-color="#4f46e5" />
    </linearGradient>
  </defs>
  <rect width="512" height="512" rx="128" fill="url(#g)"/>
  <path d="M256 112c-49 0-88 39-88 88v40h-16c-13 0-24 11-24 24v136c0 13 11 24 24 24h208c13 0 24-11 24-24V264c0-13-11-24-24-24h-16v-40c0-49-39-88-88-88zm0 40c27 0 48 21 48 48v40h-96v-40c0-27 21-48 48-48z" fill="#fff"/>
</svg>
